<svg width="64" height="64" viewBox="0 0 64 64" fill="none" xmlns="http://www.w3.org/2000/svg">
<g id="L8ek6jtEAuUmI6KVu44l8dbg9Q08A3fNqEe6DGaV (1)">
<g id="Clip path group">
<mask id="mask0_421_215" style="mask-type:luminance" maskUnits="userSpaceOnUse" x="4" y="4" width="56" height="56">
<g id="clip0_1886_25678">
<path id="Vector" d="M60 4H4V60H60V4Z" fill="white"/>
</g>
</mask>
<g mask="url(#mask0_421_215)">
<g id="Group">
<path id="Vector_2" d="M32.0542 5.74777C32.5613 5.74777 33.0682 5.85921 33.5389 6.08233L51.8609 15.0438C52.8023 15.5272 53.5264 16.4197 53.7437 17.461L58.2698 37.6521C58.5233 38.7305 58.2698 39.8461 57.5819 40.7011L44.9087 56.8766C44.2569 57.7317 43.2429 58.2151 42.193 58.2151H21.8795C20.8293 58.2151 19.8156 57.7317 19.1638 56.8766L6.4906 40.7011C5.83881 39.8461 5.58515 38.7305 5.80264 37.6521L10.3288 17.461C10.5822 16.3825 11.2702 15.4901 12.2116 15.0438L30.5338 6.04541C31.0045 5.85944 31.5473 5.74777 32.0542 5.74777ZM32.0542 4C31.2939 4 30.5336 4.18597 29.8092 4.52053L11.4874 13.5194C10.0389 14.2259 9.02519 15.5272 8.66301 17.1262L4.13688 37.3175C3.77492 38.9164 4.13688 40.5525 5.15085 41.8541L17.824 58.0293C18.8018 59.2935 20.2863 60 21.8433 60H42.1566C43.7136 60 45.1983 59.2935 46.1759 58.0293L58.8493 41.8539C59.863 40.5897 60.2252 38.9164 59.863 37.3173L55.3369 17.1262C54.9749 15.5272 53.961 14.2259 52.5127 13.5194L34.263 4.5203C33.5751 4.18597 32.8147 4 32.0542 4Z" fill="white"/>
<path id="Vector_3" d="M50.3933 36.0469C50.3571 36.0469 50.3571 36.0469 50.3933 36.0469H50.3571C50.321 36.0469 50.2849 36.0469 50.2849 36.0097C50.2126 36.0097 50.1404 35.9725 50.0679 35.9725C49.8148 35.9354 49.5978 35.8982 49.3808 35.8982C49.2722 35.8982 49.1638 35.8982 49.019 35.8608H48.9829C48.2235 35.7864 47.6087 35.7121 47.03 35.526C46.7769 35.4142 46.7046 35.2655 46.6321 35.1166C46.6321 35.0794 46.596 35.0794 46.596 35.0423L46.1259 34.8936C46.348 33.1431 46.2622 31.3658 45.8728 29.6465C45.4779 27.913 44.7926 26.2634 43.8476 24.7719L44.2093 24.4371V24.3627C44.2093 24.1766 44.2454 23.9905 44.3899 23.8044C44.8239 23.3951 45.3665 23.0603 46.0175 22.6509C46.1259 22.5765 46.2343 22.5394 46.3429 22.4648C46.5599 22.3533 46.7407 22.2417 46.9577 22.0928C46.9938 22.0556 47.0661 22.0185 47.1386 21.9441C47.1747 21.9067 47.2108 21.9067 47.2108 21.8695C47.7171 21.423 47.8257 20.6788 47.464 20.1949C47.2831 19.9344 46.9577 19.7857 46.6321 19.7857C46.3431 19.7857 46.0897 19.8973 45.8366 20.0833L45.7644 20.1577C45.6921 20.1949 45.6558 20.2694 45.5835 20.3066C45.4026 20.4927 45.2579 20.6414 45.1134 20.8275C45.0411 20.9019 44.9689 21.0136 44.8603 21.088C44.3538 21.6463 43.8837 22.0928 43.4136 22.4276C43.3052 22.502 43.1968 22.5394 43.0882 22.5394C43.0159 22.5394 42.9435 22.5394 42.8712 22.502H42.7989L42.3647 22.7998C41.8946 22.2789 41.3884 21.8324 40.8821 21.3858C38.7022 19.6325 36.0787 18.5605 33.3237 18.2972L33.2876 17.8134L33.2153 17.7391C33.1067 17.6273 32.9622 17.5158 32.9258 17.2554C32.8897 16.6599 32.9622 15.9901 33.0345 15.2459V15.2087C33.0345 15.097 33.0706 14.9483 33.1067 14.8365C33.1428 14.6135 33.179 14.39 33.2153 14.1295V13.7948C33.2153 13.1249 32.7088 12.5669 32.0942 12.5669C31.8047 12.5669 31.5155 12.7156 31.2985 12.9388C31.0817 13.1621 30.9731 13.4597 30.9731 13.7948V14.0923C30.9731 14.3528 31.0093 14.5761 31.0815 14.7993C31.1176 14.9111 31.1176 15.0226 31.1538 15.1715V15.2087C31.226 15.9529 31.3346 16.6227 31.2624 17.2182C31.2262 17.4786 31.0815 17.5902 30.9731 17.7019L30.9009 17.7763L30.8645 18.26C30.2135 18.3343 29.5626 18.4087 28.9116 18.5576C26.127 19.1903 23.6678 20.6416 21.7512 22.7252L21.3895 22.4648H21.3172C21.245 22.4648 21.1725 22.502 21.1003 22.502C20.9916 22.502 20.8833 22.4648 20.7747 22.3904C20.3045 22.0556 19.8344 21.5717 19.3282 21.0136C19.2559 20.9393 19.1837 20.8275 19.0751 20.7532C18.9303 20.5671 18.7856 20.4181 18.6047 20.2323C18.5686 20.1949 18.4963 20.1579 18.4241 20.0833C18.3879 20.0462 18.3518 20.0462 18.3518 20.009C18.1278 19.8185 17.8467 19.7133 17.5561 19.7111C17.2305 19.7111 16.9051 19.8601 16.7243 20.1205C16.3625 20.6042 16.4711 21.3484 16.9774 21.795C17.0135 21.795 17.0135 21.8324 17.0496 21.8324C17.1219 21.8695 17.1582 21.9439 17.2305 21.9811C17.4475 22.1298 17.6284 22.2415 17.8454 22.3533C17.954 22.3904 18.0623 22.4648 18.171 22.5394C18.8217 22.9485 19.3643 23.2835 19.7983 23.6929C19.9792 23.8788 19.9792 24.0649 19.9792 24.251V24.3253L20.3407 24.6604C20.2684 24.7719 20.1962 24.8465 20.1598 24.958C18.3516 27.8977 17.6645 31.3584 18.1346 34.7818L17.6645 34.9305C17.6645 34.9679 17.6284 34.9679 17.6284 35.0049C17.5561 35.1538 17.4475 35.3027 17.2305 35.4142C16.6881 35.6003 16.0371 35.6749 15.2778 35.7493H15.2414C15.133 35.7493 14.9883 35.7493 14.8799 35.7864C14.6629 35.7864 14.4459 35.8236 14.1928 35.8608C14.1206 35.8608 14.0483 35.8982 13.9758 35.8982C13.9397 35.8982 13.9036 35.8982 13.8672 35.9354C13.2163 36.0841 12.8184 36.7167 12.927 37.312C13.0356 37.8331 13.5057 38.1681 14.0842 38.1681C14.1928 38.1681 14.2651 38.1681 14.3737 38.1307C14.4098 38.1307 14.4459 38.1307 14.4459 38.0935C14.5182 38.0935 14.5905 38.0564 14.6627 38.0564C14.9161 37.982 15.0969 37.9077 15.3139 37.7959C15.4223 37.7587 15.5307 37.6842 15.6393 37.6472H15.6754C16.3625 37.3865 16.9774 37.1633 17.5561 37.0889H17.6284C17.8454 37.0889 17.9901 37.2004 18.0985 37.275C18.1346 37.275 18.1346 37.3122 18.1707 37.3122L18.6772 37.2378C19.5452 39.9912 21.2086 42.4473 23.4147 44.2335C23.921 44.6426 24.4272 44.9776 24.9698 45.3127L24.7528 45.7962C24.7528 45.8335 24.7889 45.8335 24.7889 45.8705C24.8612 46.0194 24.9334 46.2055 24.8612 46.466C24.6444 47.0243 24.3188 47.5823 23.9209 48.215V48.2522C23.8487 48.3639 23.7764 48.4383 23.7042 48.5498C23.5594 48.7359 23.4508 48.922 23.3061 49.1453C23.27 49.1824 23.2338 49.2568 23.1977 49.3314C23.1977 49.3685 23.1616 49.4057 23.1616 49.4057C22.8723 50.0384 23.0893 50.7453 23.6317 51.0058C23.7762 51.0801 23.921 51.1176 24.0657 51.1176C24.4997 51.1176 24.9337 50.8197 25.1507 50.4103C25.1507 50.3732 25.1868 50.336 25.1868 50.336C25.2229 50.2616 25.259 50.1873 25.2952 50.1499C25.4038 49.8894 25.4399 49.7033 25.5122 49.4801L25.6208 49.1453C25.8739 48.4011 26.0548 47.8056 26.3801 47.2847C26.5247 47.0614 26.7057 47.0243 26.8502 46.9497C26.8864 46.9497 26.8864 46.9497 26.9225 46.9125L27.1759 46.4288C28.7671 47.0614 30.503 47.3962 32.2387 47.3962C33.2876 47.3962 34.3725 47.2847 35.3852 47.0243C36.0225 46.8776 36.6505 46.6912 37.2657 46.466L37.4825 46.8753C37.5188 46.8753 37.5188 46.8753 37.555 46.9125C37.7358 46.9497 37.8803 47.0243 38.0251 47.2475C38.3143 47.7684 38.5313 48.4011 38.7844 49.1081V49.1453L38.8931 49.4801C38.9653 49.7033 39.0014 49.9266 39.1098 50.1499C39.1462 50.2242 39.1823 50.2616 39.2184 50.336C39.2184 50.3732 39.2548 50.4103 39.2548 50.4103C39.4716 50.8569 39.9055 51.1176 40.3395 51.1176C40.4843 51.1176 40.629 51.0801 40.7735 51.0058C41.0266 50.8571 41.2436 50.6336 41.3161 50.336C41.3884 50.0384 41.3884 49.7033 41.2439 49.4057C41.2439 49.3685 41.2075 49.3685 41.2075 49.3314C41.1714 49.257 41.1352 49.1827 41.0991 49.1453C40.9905 48.922 40.846 48.7359 40.7013 48.5498C40.629 48.4383 40.5567 48.3639 40.4845 48.2524V48.215C40.0864 47.5823 39.7247 47.0243 39.544 46.466C39.4718 46.2055 39.544 46.0568 39.5802 45.8707C39.5802 45.8335 39.6163 45.8336 39.6163 45.7964L39.4354 45.3498C41.3522 44.1963 42.9796 42.5588 44.2093 40.5495C44.8603 39.5075 45.3665 38.354 45.728 37.2004L46.162 37.2748C46.1983 37.2748 46.1983 37.2376 46.2343 37.2376C46.379 37.1633 46.4876 37.0517 46.7046 37.0517H46.7769C47.3556 37.1261 47.9702 37.3491 48.6575 37.6098H48.6937C48.8021 37.647 48.9104 37.7213 49.019 37.7585C49.236 37.8703 49.4169 37.9446 49.67 38.0192C49.7423 38.0192 49.8145 38.0564 49.887 38.0564C49.9231 38.0564 49.9593 38.0564 49.9954 38.0935C50.104 38.1307 50.1763 38.1307 50.2849 38.1307C50.8272 38.1307 51.2974 37.7587 51.4421 37.275C51.4421 36.8285 51.0442 36.2328 50.3933 36.0469ZM33.6491 34.2235L32.0579 35.0051L30.4667 34.2235L30.069 32.4747L31.1538 31.0607H32.9258L34.0108 32.4747L33.6491 34.2235ZM43.0882 30.3537C43.3687 31.5842 43.4542 32.8532 43.3413 34.1118L37.8081 32.4747C37.3018 32.326 37.0126 31.8049 37.121 31.284C37.1571 31.1351 37.2296 30.9862 37.338 30.8746L41.714 26.8185C42.3286 27.8605 42.7987 29.0515 43.0882 30.3537ZM39.978 24.586L35.2405 28.0466C34.8427 28.3071 34.3001 28.2325 33.9747 27.8234C33.8663 27.7116 33.8302 27.5627 33.7938 27.414L33.4684 21.3484C35.9314 21.6402 38.2258 22.7814 39.978 24.586ZM29.4903 21.5343C29.8882 21.4599 30.2497 21.3856 30.6475 21.3112L30.3221 27.2648C30.286 27.7857 29.8882 28.2323 29.3456 28.2323C29.2011 28.2323 29.0202 28.1951 28.9116 28.1208L24.1018 24.586C25.5846 23.0603 27.429 22.018 29.4903 21.5343ZM22.3659 26.8183L26.6694 30.7627C27.0672 31.0977 27.1034 31.7301 26.778 32.1395C26.6694 32.2882 26.5249 32.3999 26.344 32.4373L20.7385 34.1118C20.5215 31.5814 21.0639 29.0139 22.3659 26.8183ZM21.3893 36.9026L27.1397 35.8977C27.6098 35.8606 28.0438 36.1956 28.1522 36.6793C28.1883 36.9024 28.1883 37.0887 28.1161 37.2748L25.91 42.7447C23.8848 41.405 22.2573 39.3584 21.3893 36.9026ZM34.5895 44.3076C33.7577 44.4937 32.9258 44.6052 32.0579 44.6052C30.7923 44.6052 29.5626 44.3822 28.4056 44.01L31.2624 38.6888C31.5516 38.3538 32.0217 38.2051 32.4196 38.4283C32.5885 38.5348 32.7358 38.6737 32.8536 38.8375L35.6382 44.01C35.3128 44.1215 34.9513 44.1961 34.5895 44.3076ZM41.6415 39.1353C40.7374 40.6237 39.5438 41.8144 38.1698 42.7447L35.8915 37.1256C35.7829 36.6793 35.9638 36.1956 36.3977 35.9721C36.5423 35.8977 36.7231 35.8606 36.904 35.8606L42.6903 36.8654C42.4733 37.6839 42.1116 38.4283 41.6415 39.1353Z" fill="white"/>
</g>
</g>
</g>
</g>
</svg>
