<svg width="64" height="64" viewBox="0 0 64 64" fill="none" xmlns="http://www.w3.org/2000/svg">
<g id="3SsjNY34PPHxA2B8MLRYhsBug3q9DXveCjYBlWsy">
<path id="Vector" d="M39.5345 21.4103H41.2425L46.1103 16.5425L46.3494 14.4758C43.5608 12.0144 40.1908 10.3046 36.5577 9.50789C32.9245 8.71113 29.1482 8.85373 25.5855 9.92219C22.0228 10.9907 18.7913 12.9497 16.1963 15.6143C13.6012 18.279 11.7283 21.5611 10.7544 25.1509C11.2967 24.9286 11.8974 24.8925 12.4624 25.0484L22.1981 23.4428C22.1981 23.4428 22.6934 22.623 22.9496 22.6742C25.0357 20.3832 27.9186 18.9762 31.0081 18.7412C34.0976 18.5063 37.1601 19.4611 39.5686 21.4103H39.5345Z" fill="white"/>
<path id="Vector_2" d="M53.0449 25.1492C51.926 21.0288 49.6287 17.3247 46.4349 14.4912L39.6028 21.3232C41.0267 22.4867 42.1678 23.9582 42.94 25.627C43.7122 27.2957 44.0955 29.118 44.0607 30.9564V32.1691C44.8592 32.1691 45.6499 32.3264 46.3877 32.632C47.1254 32.9375 47.7957 33.3854 48.3603 33.9501C48.925 34.5147 49.3728 35.185 49.6784 35.9227C49.984 36.6605 50.1413 37.4511 50.1413 38.2497C50.1413 39.0482 49.984 39.8388 49.6784 40.5766C49.3728 41.3143 48.925 41.9846 48.3603 42.5492C47.7957 43.1139 47.1254 43.5618 46.3877 43.8673C45.6499 44.1729 44.8592 44.3302 44.0607 44.3302H31.8997L30.687 45.5599V52.8532L31.8997 54.0659H44.0607C47.4567 54.0923 50.7709 53.025 53.5133 51.0218C56.2556 49.0186 58.2803 46.1859 59.2879 42.9428C60.2955 39.6997 60.2325 36.2184 59.1082 33.0139C57.9838 29.8093 55.8579 27.0518 53.0449 25.1492Z" fill="white"/>
<path id="Vector_3" d="M19.7216 53.9996H31.8827V44.2639H19.7216C18.8552 44.2637 17.999 44.0773 17.2109 43.7173L15.5028 44.2468L10.6008 49.1146L10.1738 50.8226C12.9228 52.8984 16.2771 54.0145 19.7216 53.9996Z" fill="white"/>
<path id="Vector_4" d="M19.7217 22.4171C16.4267 22.4368 13.22 23.4852 10.5497 25.4157C7.87935 27.3463 5.87866 30.0627 4.82706 33.1855C3.77546 36.3083 3.72547 39.6816 4.68406 42.8342C5.64266 45.9868 7.56198 48.7613 10.1739 50.7702L17.228 43.7161C16.3316 43.3111 15.5468 42.6946 14.941 41.9197C14.3352 41.1447 13.9264 40.2343 13.7498 39.2666C13.5732 38.2989 13.634 37.3028 13.927 36.3638C14.22 35.4247 14.7364 34.5708 15.432 33.8753C16.1275 33.1797 16.9815 32.6633 17.9205 32.3703C18.8595 32.0773 19.8556 32.0165 20.8233 32.1931C21.791 32.3697 22.7014 32.7785 23.4764 33.3843C24.2513 33.9901 24.8678 34.7749 25.2728 35.6713L32.3269 28.6172C30.8463 26.6816 28.938 25.1148 26.7513 24.0392C24.5646 22.9636 22.1587 22.4084 19.7217 22.4171Z" fill="white"/>
</g>
</svg>
