<svg width="64" height="64" viewBox="0 0 64 64" fill="none" xmlns="http://www.w3.org/2000/svg">
<g id="ahTM6TpNAhEBSBDQHXdwnwYFWFn8ZPGTFlRQdMhH">
<path id="Vector" d="M6.38916 32.4531C6.57666 35.4766 9.09619 37.4102 12.8461 37.4102C16.854 37.4102 19.3618 35.3828 19.3618 32.1484C19.3618 29.6055 17.9321 28.1992 14.4633 27.3906L12.6001 26.9336C10.3969 26.418 9.50634 25.7266 9.50634 24.5195C9.50634 22.9961 10.8891 22 12.9633 22C14.9321 22 16.2915 22.9727 16.5376 24.5312H19.0922C18.9399 21.6836 16.4321 19.6797 12.9985 19.6797C9.30712 19.6797 6.84619 21.6836 6.84619 24.6953C6.84619 27.1797 8.24072 28.6562 11.2993 29.3711L13.479 29.8984C15.7172 30.4258 16.7016 31.1992 16.7016 32.4883C16.7016 33.9883 15.1547 35.0781 13.0454 35.0781C10.7836 35.0781 9.21337 34.0586 8.99072 32.4531H6.38916Z" fill="white"/>
<path id="Vector_2" d="M37.4629 24.2383H34.9434L32.67 33.9766H32.4707L29.8457 24.2383H27.4317L24.8067 33.9766H24.6192L22.334 24.2383H19.7793L23.295 37H25.8848L28.5098 27.6016H28.709L31.3457 37H33.959L37.4629 24.2383Z" fill="white"/>
<path id="Vector_3" d="M38.6714 37H41.1792V24.2383H38.6714V37ZM39.9253 22C40.8628 22 41.5542 21.332 41.5542 20.4648C41.5542 19.5859 40.8628 18.918 39.9253 18.918C38.9878 18.918 38.2964 19.5859 38.2964 20.4648C38.2964 21.332 38.9878 22 39.9253 22Z" fill="white"/>
<path id="Vector_4" d="M45.3046 37H47.8242V26.418H50.6367V24.2969H47.789V23.0781C47.789 21.8125 48.3632 21.1797 49.7695 21.1797C50.1679 21.1797 50.5078 21.2031 50.7421 21.25V19.2695C50.3085 19.1875 49.8164 19.1406 49.2421 19.1406C46.5937 19.1406 45.3046 20.3945 45.3046 22.9258V24.2969H43.207V26.418H45.3046V37Z" fill="white"/>
<path id="Vector_5" d="M52.5136 21.0625V24.2969H50.4863V26.418H52.5136V33.625C52.5136 36.0859 53.6269 37.0703 56.4277 37.0703C56.9199 37.0703 57.3886 37.0117 57.7988 36.9414V34.8438C57.4472 34.8789 57.2246 34.9023 56.8379 34.9023C55.584 34.9023 55.0332 34.3164 55.0332 32.9805V26.418H57.7988V24.2969H55.0332V21.0625H52.5136Z" fill="white"/>
<path id="Vector_6" d="M15.1118 49.1758C16.7378 49.1758 17.9292 48.2041 18.0952 46.7637H16.855C16.6841 47.5547 16.0054 48.0527 15.1118 48.0527C13.9106 48.0527 13.1636 47.0664 13.1636 45.4746C13.1636 43.8877 13.9106 42.9014 15.1069 42.9014C15.9956 42.9014 16.6743 43.4482 16.8501 44.293H18.0903C17.9438 42.8232 16.7085 41.7783 15.1069 41.7783C13.1099 41.7783 11.8745 43.1895 11.8745 45.4795C11.8745 47.7598 13.1147 49.1758 15.1118 49.1758Z" fill="white"/>
<path id="Vector_7" d="M21.4741 49.1074C23.0708 49.1074 24.0425 48.0625 24.0425 46.3291C24.0425 44.6006 23.0659 43.5508 21.4741 43.5508C19.8872 43.5508 18.9058 44.6055 18.9058 46.3291C18.9058 48.0625 19.8726 49.1074 21.4741 49.1074ZM21.4741 48.0918C20.6294 48.0918 20.146 47.4473 20.146 46.3291C20.146 45.2158 20.6294 44.5664 21.4741 44.5664C22.314 44.5664 22.7974 45.2158 22.7974 46.3291C22.7974 47.4473 22.3188 48.0918 21.4741 48.0918Z" fill="white"/>
<path id="Vector_8" d="M25.0635 49H26.2744V45.7529C26.2744 45.0986 26.7188 44.6055 27.3193 44.6055C27.915 44.6055 28.2861 44.9619 28.2861 45.5479V49H29.4629V45.6748C29.4629 45.0645 29.8779 44.6055 30.5078 44.6055C31.1572 44.6055 31.4844 44.9473 31.4844 45.6357V49H32.6904V45.3281C32.6904 44.2197 32.0459 43.5508 30.9766 43.5508C30.2344 43.5508 29.6191 43.9365 29.3555 44.5225H29.2725C29.0479 43.9219 28.5352 43.5508 27.7979 43.5508C27.0898 43.5508 26.543 43.9121 26.3135 44.5225H26.2305V43.6582H25.0635V49Z" fill="white"/>
<path id="Vector_9" d="M36.8945 49.0879C38.2422 49.0879 39.0869 48.0283 39.0869 46.3291C39.0869 44.6201 38.2471 43.5703 36.8945 43.5703C36.1621 43.5703 35.5469 43.9268 35.2686 44.5078H35.1855V41.5928H33.9746V49H35.1416V48.1553H35.2246C35.5273 48.7412 36.1475 49.0879 36.8945 49.0879ZM36.5137 44.6006C37.3389 44.6006 37.8418 45.2549 37.8418 46.3291C37.8418 47.4033 37.3437 48.0576 36.5137 48.0576C35.6836 48.0576 35.166 47.3936 35.166 46.3291C35.166 45.2646 35.6885 44.6006 36.5137 44.6006Z" fill="white"/>
<path id="Vector_10" d="M40.1177 49H41.3237V43.6582H40.1177V49ZM40.7183 42.7891C41.1626 42.7891 41.4653 42.5059 41.4653 42.1201C41.4653 41.7344 41.1626 41.4512 40.7183 41.4512C40.2788 41.4512 39.9712 41.7344 39.9712 42.1201C39.9712 42.5059 40.2788 42.7891 40.7183 42.7891Z" fill="white"/>
<path id="Vector_11" d="M42.6274 49H43.8384V45.8896C43.8384 45.1035 44.2925 44.6055 45.0151 44.6055C45.7524 44.6055 46.0942 45.0156 46.0942 45.8311V49H47.3052V45.543C47.3052 44.2686 46.6558 43.5508 45.4644 43.5508C44.6685 43.5508 44.1313 43.917 43.8774 44.5127H43.7944V43.6582H42.6274V49Z" fill="white"/>
<path id="Vector_12" d="M50.7821 44.5127C51.5097 44.5127 51.9882 45.0205 52.0126 45.8115H49.498C49.5517 45.0303 50.0595 44.5127 50.7821 44.5127ZM52.0224 47.5303C51.8466 47.9258 51.4316 48.1455 50.831 48.1455C50.0351 48.1455 49.5224 47.5889 49.4931 46.7002V46.6367H53.2235V46.2461C53.2235 44.5615 52.3105 43.5508 50.787 43.5508C49.2392 43.5508 48.2773 44.6299 48.2773 46.3486C48.2773 48.0674 49.2245 49.1074 50.7968 49.1074C52.0566 49.1074 52.9403 48.502 53.1698 47.5303H52.0224Z" fill="white"/>
</g>
</svg>
