<svg width="61" height="61" viewBox="0 0 61 61" fill="none" xmlns="http://www.w3.org/2000/svg">
<g id="kVTis29Som8kdxGwh3xoxkJPwlZIJ0tt3uOsXfmZ">
<path id="Vector" d="M55.2013 24.2239C55.2002 23.1794 54.9567 22.1496 54.4899 21.2153C54.0231 20.2811 53.3457 19.468 52.5112 18.84L34.5362 5.19297C33.3506 4.29716 31.9052 3.8125 30.4192 3.8125C28.9333 3.8125 27.4878 4.29716 26.3022 5.19297L8.40733 18.7778C7.56448 19.4122 6.88219 20.2355 6.4153 21.1815C5.9484 22.1276 5.70992 23.1698 5.719 24.2247V36.7759C5.71954 37.8269 5.96563 38.8632 6.43762 39.8022C6.90962 40.7413 7.59446 41.5571 8.43757 42.1846L26.626 55.8308C27.8167 56.7196 29.2647 57.1959 30.7505 57.1874C32.2363 57.1789 33.6788 56.6861 34.8591 55.7836L52.5432 42.1988C53.3775 41.5631 54.0521 40.7416 54.5135 39.7997C54.9749 38.8578 55.2104 37.8212 55.2013 36.7723V24.2559V24.2239ZM8.74359 19.2208L26.6349 5.63598C27.7236 4.81321 29.0511 4.36805 30.4157 4.36805C31.7803 4.36805 33.1077 4.81321 34.1964 5.63598L52.1749 19.2831C53.2172 20.0754 53.9845 21.1748 54.3688 22.4264C54.7531 23.6779 54.735 25.0185 54.317 26.2593C54.0722 26.9912 53.6912 27.6703 53.1944 28.2608C52.8988 28.6111 52.5666 28.9287 52.2033 29.2082L34.5202 42.793C33.4361 43.6219 32.1113 44.0744 30.7467 44.0821C29.382 44.0898 28.0521 43.6523 26.9588 42.8357L8.77116 29.1895C8.38556 28.9005 8.03426 28.5683 7.72413 28.1994C7.2267 27.6091 6.84602 26.9295 6.60236 26.1969C6.18442 24.9563 6.16623 23.6159 6.55037 22.3643C6.9345 21.1128 7.7016 20.0133 8.74359 19.2208ZM54.6462 36.7768C54.6543 37.7397 54.4379 38.6913 54.0143 39.556C53.5905 40.4208 52.9712 41.1748 52.2051 41.7585L34.5202 55.3424C33.4361 56.1714 32.1113 56.624 30.7467 56.6317C29.382 56.6395 28.0521 56.2018 26.9588 55.3851L8.77116 41.7398C7.99714 41.1638 7.36837 40.4151 6.935 39.5531C6.50161 38.6911 6.27561 37.7397 6.275 36.775V35.2627C6.28122 35.2787 6.29101 35.293 6.29812 35.308C6.39966 35.5396 6.51461 35.7651 6.64239 35.9832C6.6593 36.0126 6.67441 36.0419 6.69221 36.0723C6.8249 36.291 6.97015 36.5018 7.12721 36.7038C7.15747 36.743 7.18682 36.7812 7.21618 36.8195C7.37568 37.018 7.54615 37.2075 7.7268 37.387C7.75793 37.4173 7.78996 37.4457 7.82109 37.476C8.01546 37.6635 8.22071 37.8393 8.4358 38.0026L26.626 51.6479C26.7773 51.7618 26.9321 51.8677 27.0904 51.9673C27.1606 52.0109 27.2336 52.0492 27.3057 52.0901C27.3946 52.1417 27.4836 52.196 27.5726 52.2431C27.6615 52.2902 27.7621 52.3321 27.8581 52.3765C27.9292 52.4095 27.9996 52.4459 28.0716 52.4762C28.1774 52.5206 28.286 52.558 28.3936 52.5963C28.4576 52.6194 28.5208 52.646 28.5849 52.6674C28.7005 52.7048 28.8179 52.7351 28.9354 52.7661C28.9932 52.7822 29.0511 52.8008 29.1133 52.8151C29.2352 52.8445 29.358 52.8658 29.4807 52.8881C29.5358 52.8979 29.5901 52.9121 29.6462 52.9201C29.769 52.9396 29.8926 52.9512 30.0162 52.9646C30.0722 52.9699 30.1283 52.9788 30.1843 52.9833C30.3071 52.993 30.4298 52.9948 30.5526 52.9975C30.6069 52.9975 30.6603 53.0046 30.7146 53.0046H30.727C30.8631 53.0046 30.9939 52.9966 31.1327 52.9886C31.1798 52.9886 31.2269 52.9886 31.2741 52.9823C31.4156 52.9708 31.5561 52.9512 31.6967 52.9307C31.7375 52.9254 31.7776 52.9227 31.8176 52.9156C31.9617 52.8925 32.1041 52.8614 32.2464 52.8267C32.2829 52.8187 32.3203 52.8133 32.3567 52.8045C32.5008 52.7688 32.6432 52.7253 32.7855 52.6807C32.8184 52.6701 32.8531 52.6621 32.8869 52.6505C33.031 52.6025 33.1733 52.5464 33.3148 52.4886C33.3441 52.4762 33.3753 52.4664 33.4038 52.4539C33.5488 52.3917 33.6911 52.3214 33.8325 52.2494C33.8575 52.236 33.8832 52.2262 33.9082 52.2129C34.0478 52.139 34.1848 52.0563 34.32 51.9718L34.3956 51.9282C34.554 51.8262 34.7094 51.7168 34.8618 51.5999L52.5432 38.016C52.7525 37.8531 52.9524 37.6785 53.1419 37.4929C53.1704 37.4653 53.2006 37.4377 53.2308 37.4093C53.4075 37.2311 53.5744 37.0434 53.7308 36.847L53.8197 36.7376C53.9734 36.5382 54.1156 36.3304 54.2459 36.115C54.2619 36.0891 54.2752 36.0616 54.2903 36.0357C54.4151 35.8213 54.528 35.6 54.6284 35.373C54.6346 35.357 54.6452 35.3427 54.6515 35.3267L54.6462 36.7768ZM54.3188 34.6267C53.924 35.7981 53.1879 36.8248 52.2051 37.5748L34.5202 51.1596C33.4361 51.9882 32.1113 52.4408 30.7468 52.4487C29.3823 52.4566 28.0524 52.0193 26.9588 51.2032L8.77116 37.5561C7.995 36.9752 7.36516 36.2212 6.9318 35.3541C6.49845 34.4868 6.27354 33.5305 6.275 32.561V31.0817C6.275 31.0932 6.28567 31.1039 6.29101 31.1164C6.30879 31.1573 6.33014 31.1982 6.34883 31.2391C6.40814 31.3719 6.47337 31.5021 6.54454 31.6296C6.57478 31.6857 6.60592 31.7399 6.6335 31.7942C6.7011 31.9107 6.77316 32.0255 6.84788 32.1376C6.8808 32.1866 6.91193 32.2363 6.94574 32.2843C7.05516 32.4401 7.16991 32.5922 7.29357 32.739C7.6324 33.1412 8.01624 33.5033 8.43757 33.818L26.626 47.4643C26.7773 47.5781 26.9321 47.684 27.0904 47.7836C27.1526 47.8219 27.2167 47.8548 27.279 47.8913C27.3768 47.9482 27.4738 48.0078 27.5743 48.0594C27.6544 48.1012 27.7362 48.135 27.8171 48.1732C27.8982 48.2115 27.9879 48.2569 28.0752 48.2933C28.1624 48.3298 28.2468 48.3574 28.3322 48.3894C28.4176 48.4214 28.503 48.4561 28.5894 48.4846C28.6756 48.5131 28.7717 48.5362 28.8633 48.562C28.955 48.5878 29.0297 48.6119 29.1142 48.6322C29.1987 48.6527 29.3099 48.6714 29.4077 48.691C29.4878 48.7061 29.567 48.7248 29.6471 48.7373C29.7485 48.7533 29.8507 48.7622 29.954 48.7737C30.0313 48.7827 30.1079 48.7942 30.1853 48.8004C30.2894 48.8084 30.3934 48.8093 30.4975 48.8129C30.5696 48.8129 30.6398 48.8209 30.7119 48.8209H30.727C30.8453 48.8209 30.9627 48.8137 31.0828 48.8067C31.146 48.8067 31.2101 48.8067 31.2741 48.7987C31.4004 48.788 31.5259 48.7702 31.6521 48.7523C31.7065 48.7453 31.7616 48.7408 31.8167 48.7319C31.9502 48.7106 32.0836 48.6812 32.2144 48.6519C32.2606 48.6412 32.3078 48.6341 32.354 48.6225C32.4911 48.5887 32.6209 48.5468 32.7606 48.5051C32.8015 48.4926 32.8434 48.4828 32.8842 48.4686C33.023 48.4224 33.1609 48.368 33.297 48.312C33.3326 48.2978 33.3681 48.2871 33.402 48.272C33.5426 48.2115 33.6795 48.1439 33.8165 48.0745C33.8458 48.0594 33.877 48.0469 33.9055 48.0309C34.0443 47.958 34.1804 47.8761 34.3147 47.7925C34.3405 47.7765 34.3672 47.7632 34.3929 47.7462C34.5514 47.6448 34.7067 47.5357 34.8591 47.4189L52.5432 33.8314C52.9385 33.5283 53.2997 33.1831 53.6204 32.8021C53.7432 32.6563 53.8571 32.5041 53.9665 32.3493C54.0021 32.2986 54.035 32.247 54.0697 32.1954C54.1427 32.0863 54.2123 31.9748 54.2788 31.861C54.3116 31.804 54.3446 31.7479 54.3757 31.6902C54.4434 31.5656 54.5068 31.4386 54.5661 31.3094C54.5875 31.2649 54.6097 31.2205 54.6292 31.1768C54.6346 31.1653 54.6408 31.1546 54.6452 31.1421V32.6224C54.6462 33.3039 54.5365 33.9809 54.3188 34.6267ZM54.3188 30.4456C54.0739 31.1773 53.6931 31.856 53.1961 32.4463C52.9005 32.7963 52.5683 33.1136 52.2051 33.3928L34.5202 46.9768C33.436 47.8053 32.1112 48.2577 30.7466 48.2654C29.3821 48.2731 28.0523 47.8357 26.9588 47.0195L8.77116 33.3732C8.38535 33.0837 8.03404 32.751 7.72413 32.3814C7.22633 31.7916 6.8456 31.1122 6.60236 30.3798C6.38459 29.7349 6.274 29.0588 6.275 28.3782V26.8971C6.275 26.9086 6.28567 26.9193 6.29101 26.9308C6.31058 26.9772 6.33371 27.0199 6.35506 27.0661C6.41436 27.1953 6.47753 27.322 6.54454 27.4459C6.57567 27.5029 6.60769 27.5589 6.64061 27.615C6.70822 27.7306 6.77849 27.8435 6.85322 27.9556C6.88614 28.0046 6.91727 28.0544 6.95196 28.1024C7.06138 28.2582 7.17525 28.4103 7.29891 28.5571C7.63602 28.9585 8.01807 29.3199 8.43757 29.6343L26.626 43.2814C26.7773 43.3944 26.9321 43.5012 27.0904 43.5999C27.166 43.647 27.2443 43.6889 27.3208 43.7324C27.3973 43.7761 27.488 43.8321 27.5743 43.8765C27.6606 43.9211 27.7522 43.9593 27.8412 44.0003C27.9302 44.0411 27.9978 44.0767 28.077 44.1097C28.1561 44.1426 28.2548 44.1781 28.35 44.2119C28.4453 44.2458 28.5102 44.2742 28.592 44.3009C28.6738 44.3276 28.7752 44.3534 28.8678 44.3792C28.9603 44.4049 29.0332 44.429 29.1178 44.4495C29.2022 44.47 29.301 44.486 29.3927 44.5037C29.4843 44.5215 29.5643 44.5411 29.6515 44.5544C29.7386 44.5677 29.8294 44.5758 29.9184 44.5864C30.0073 44.5971 30.0963 44.6104 30.1853 44.6176C30.2742 44.6247 30.3631 44.6238 30.4522 44.6274C30.5411 44.6309 30.6238 44.6381 30.7101 44.6381H30.727C30.8258 44.6381 30.9245 44.6309 31.0233 44.6256C31.1069 44.6256 31.1904 44.6211 31.2741 44.6149C31.3729 44.6061 31.4716 44.5909 31.5704 44.5784C31.6521 44.5687 31.7349 44.5616 31.8167 44.5482C31.9182 44.5313 32.0178 44.5082 32.1183 44.4868C32.1966 44.47 32.2766 44.4575 32.355 44.4379C32.4581 44.4121 32.5605 44.3792 32.6627 44.3489C32.7366 44.3267 32.8104 44.3089 32.8834 44.284C32.991 44.2484 33.0969 44.2039 33.2036 44.1621C33.2694 44.1364 33.3361 44.115 33.4002 44.0874C33.5141 44.0385 33.6253 43.9816 33.7374 43.9264C33.7925 43.8988 33.8485 43.8757 33.9037 43.8463C34.0291 43.7805 34.151 43.7057 34.2729 43.631C34.3112 43.607 34.3512 43.5875 34.3894 43.5626C34.5487 43.4602 34.7043 43.3517 34.8556 43.2352L52.5432 29.6494C52.9383 29.3455 53.2995 28.9998 53.6204 28.6184C53.7441 28.4717 53.8589 28.3186 53.9683 28.1629C54.0021 28.1149 54.0341 28.066 54.0661 28.017C54.1408 27.9041 54.213 27.7902 54.2806 27.6737C54.3126 27.6194 54.3446 27.5643 54.3748 27.5082C54.4442 27.381 54.5083 27.252 54.5688 27.1203C54.5883 27.0786 54.6097 27.0376 54.6284 26.9949C54.6337 26.9825 54.6399 26.9709 54.6452 26.9585V28.4405C54.6461 29.1217 54.5355 29.7983 54.3179 30.4439L54.3188 30.4456ZM25.0515 36.2591L25.2231 36.3969L27.3394 34.7405L21.0928 30.0132L29.7218 32.8733L31.323 31.6278L27.5361 24.3805L33.9349 29.5845L35.9987 27.969L25.5096 19.6408L23.0908 21.5329L27.5245 29.653L16.9064 26.3713L15.0143 27.8516V27.9859C15.0098 28.1728 15.0098 28.2065 25.0488 36.2573L25.0515 36.2591ZM43.9996 21.7054L42.0701 20.1309L37.4923 23.7213L28.8927 16.9951L26.6687 18.7342L37.2343 26.9976L43.9996 21.7054Z" fill="white"/>
</g>
</svg>
