<svg width="64" height="64" viewBox="0 0 64 64" fill="none" xmlns="http://www.w3.org/2000/svg">
<g id="rAbWzPRiudZPnjVIwND7FkgYAbLQUnSkz5mMGSIt">
<path id="Vector" fill-rule="evenodd" clip-rule="evenodd" d="M32.2421 8C14.2216 8 8.81556 14.0614 10.208 18.4027L32.2421 15.6997L39.5322 25.7747V46.4164C39.5322 46.4164 38.3036 47.727 28.8838 47.5631C19.464 47.3993 12.4196 39.1263 12.4196 39.1263L12.7506 43.0073C13.1152 47.2839 15.1742 51.3243 19.0829 53.0974C22.365 54.5863 26.8904 56 32.2421 56C40.1211 56 44.8928 53.2779 47.033 51.2192C47.7841 50.4967 48.1446 49.499 48.3337 48.4741C48.9352 45.214 49.6948 41.2646 50.4639 37.2662L50.4641 37.265C52.2625 27.9144 54.1125 18.296 54.1125 16.6007C54.1125 14.7527 50.2626 8 32.2421 8ZM25.0338 27.1672C20.9055 26.5775 15.5048 24.1365 13.3205 22.9897L14.9193 36.113C15.1558 38.0543 16.0867 39.8601 17.7233 40.9306C19.4925 42.0878 22.0859 43.5008 25.0338 44.2048C28.0797 44.9321 31.4788 44.8521 33.9009 44.6369C35.8037 44.4678 37.1567 42.8279 37.1567 40.9176V27.5768C34.8358 27.686 29.1621 27.757 25.0338 27.1672ZM29.3954 18.0009L13.3205 20.2867C14.6584 21.4881 18.8085 24.0874 24.7062 24.8738C30.6038 25.6601 35.1908 25.5291 36.7471 25.3652L32.2394 19.2003C31.5855 18.306 30.4921 17.8449 29.3954 18.0009Z" fill="white"/>
</g>
</svg>
