<svg width="64" height="64" viewBox="0 0 64 64" fill="none" xmlns="http://www.w3.org/2000/svg">
<g id="fmYPmlnnbYmjGcOqFRzlg1Ih2Wji3LfUwUeTvl7C">
<path id="Vector" d="M11.4863 32.5964L16.7905 21.5459L17.9061 42.7418L12.1708 37.0065C11.4439 36.2558 11 35.2028 11 34.2083C11 34.0657 11.0474 33.8026 11.153 33.4608C11.2526 33.1387 11.3804 32.8208 11.4863 32.5964Z" stroke="white" stroke-width="2"/>
<path id="Vector_2" d="M45.0001 19.0417L37.4168 11.4583C36.7547 10.7933 35.3751 10 34.2085 10C33.2051 10 32.2222 10.2013 31.5835 10.5833L17.5835 17.5833L45.0001 19.0417Z" fill="white"/>
<path id="Vector_3" d="M28.0835 54.3335H46.4585V46.4585L32.7501 42.0835L20.2085 46.4585L28.0835 54.3335Z" fill="white"/>
<path id="Vector_4" d="M17.5835 41.2085C17.5835 43.5476 17.878 44.1222 19.0418 45.2918L20.2085 46.4585H46.4585L33.6251 31.8751L17.5835 17.5835V41.2085Z" fill="white"/>
<path id="Vector_5" d="M53.3334 28.7894V45.4585H46.8726L19.9976 18.5835H40.9167C41.7053 18.5835 42.2726 18.6216 42.7782 18.7759C43.2577 18.9221 43.7377 19.1913 44.2913 19.7473L44.2929 19.7489L53.3334 28.7894Z" stroke="white" stroke-width="2"/>
<path id="Vector_6" opacity="0.2" d="M54.0415 28.0835V46.1668H46.1665L46.4582 46.4585H54.3332V28.3751L54.0415 28.0835Z" fill="white"/>
</g>
</svg>
