<svg width="64" height="64" viewBox="0 0 64 64" fill="none" xmlns="http://www.w3.org/2000/svg">
<g id="8OHp4RD4OXYDRJC9DFMpDoeYeFhDD8obCUWp8MPG">
<path id="Vector" d="M26.3183 49.7364V49.7505C26.3183 50.1829 26.2132 50.5908 26.0434 50.9445C25.5969 51.8637 24.6654 52.48 23.5764 52.48C22.0671 52.48 20.8345 51.2596 20.8345 49.7381V49.7259C20.8345 49.3056 20.9396 48.8994 21.1094 48.5458L21.1742 48.4285C21.6329 47.5758 22.5381 46.998 23.5746 46.998C25.0961 46.998 26.3165 48.2306 26.3165 49.7399L26.3183 49.7364Z" fill="white"/>
<path id="Vector_2" d="M43.1653 49.7362V49.7502C43.1513 51.2717 41.9327 52.4798 40.4234 52.4798C38.9141 52.4798 37.6675 51.2594 37.6675 49.7379V49.7257C37.6815 48.2164 38.9001 46.9961 40.4234 46.9961C41.9467 46.9961 43.1653 48.2287 43.1653 49.7379V49.7362Z" fill="white"/>
<path id="Vector_3" d="M9.48374 49.7369C9.48374 50.0906 9.41721 50.432 9.2999 50.7472L9.20885 50.931C8.76238 51.8502 7.83092 52.4788 6.74187 52.4788C5.22036 52.4788 4 51.2584 4 49.7369C4 49.3045 4.09105 48.9105 4.27489 48.5428L4.35368 48.3852C4.82641 47.5588 5.71761 46.9951 6.74187 46.9951C8.25113 46.9951 9.48374 48.2277 9.48374 49.7369Z" fill="white"/>
<path id="Vector_4" d="M26.4376 14.7436V14.7576C26.4376 15.1901 26.3466 15.584 26.1628 15.9517L26.1102 16.0568C25.6375 16.9235 24.7323 17.4995 23.6958 17.4995C22.1743 17.4995 20.9399 16.2669 20.9399 14.7436V14.7296C20.9399 14.3497 21.0187 14.0083 21.1623 13.6791L21.2148 13.5618C21.6473 12.6426 22.5927 12 23.694 12C25.2033 12 26.4359 13.2326 26.4359 14.7419L26.4376 14.7436Z" fill="white"/>
<path id="Vector_5" d="M43.2704 14.7434V14.7574C43.2704 15.1899 43.1653 15.5838 42.9955 15.9375L42.9167 16.0951C42.444 16.9355 41.5528 17.4993 40.5285 17.4993C39.007 17.4993 37.7866 16.2666 37.7866 14.7434V14.7294C37.7866 14.3617 37.8654 14.0203 37.9967 13.6929L38.0633 13.5493C38.4957 12.6301 39.4412 12.0015 40.5302 12.0015C42.0395 12.0015 43.2721 13.2341 43.2721 14.7434H43.2704Z" fill="white"/>
<path id="Vector_6" d="M60.0003 49.7369C60.0003 51.2584 58.7677 52.4788 57.2584 52.4788C55.7492 52.4788 54.5166 51.2584 54.5166 49.7369C54.5166 48.2154 55.7369 46.9951 57.2584 46.9951C58.7799 46.9951 60.0003 48.2277 60.0003 49.7369Z" fill="white"/>
<path id="Vector_7" d="M9.30169 50.7467C9.419 50.4316 9.48553 50.0901 9.48553 49.7365C9.48553 48.2272 8.25292 46.9946 6.74366 46.9946C5.7194 46.9946 4.82821 47.5584 4.35547 48.3848L21.1621 13.6807C21.0185 14.0081 20.9398 14.3635 20.9398 14.7435C20.9398 16.265 22.1724 17.4993 23.6956 17.4993C24.7322 17.4993 25.6374 16.9216 26.1101 16.0566L9.30169 50.7467Z" fill="white"/>
<path id="Vector_8" d="M26.4375 14.7578L26.3202 49.7386C26.3202 48.2293 25.0998 46.9967 23.5783 46.9967C22.0568 46.9967 20.8487 48.217 20.8364 49.7263L20.9415 14.7456C20.9415 16.2671 22.1741 17.5014 23.6974 17.5014C24.7339 17.5014 25.6391 16.9237 26.1118 16.0587L26.1643 15.9537C26.3482 15.586 26.4392 15.192 26.4392 14.7596L26.4375 14.7578Z" fill="white"/>
<path id="Vector_9" d="M26.3181 49.7506V49.7366C26.3181 48.2273 25.0978 46.9947 23.5763 46.9947C22.5398 46.9947 21.6346 47.5725 21.1758 48.4252L37.9965 13.6948C37.8652 14.0222 37.7864 14.3777 37.7864 14.7453C37.7864 16.2669 39.0067 17.5012 40.5283 17.5012C41.5525 17.5012 42.4437 16.9374 42.9164 16.097L26.0433 50.9447C26.2148 50.591 26.3181 50.1831 26.3181 49.7506Z" fill="white"/>
<path id="Vector_10" d="M43.2703 14.7578L43.1653 49.7386C43.1653 48.2293 41.9327 46.9967 40.4234 46.9967C38.9141 46.9967 37.6815 48.217 37.6675 49.7263L37.7848 14.7456C37.7848 16.2671 39.0052 17.5014 40.5267 17.5014C41.551 17.5014 42.4422 16.9377 42.9149 16.0972L42.9937 15.9397C43.1635 15.586 43.2686 15.192 43.2686 14.7596L43.2703 14.7578Z" fill="white"/>
<path id="Vector_11" d="M57.2584 52.4805H40.4238C41.933 52.4805 43.1534 51.2742 43.1657 49.7509V49.7369C43.1657 48.2277 41.933 46.9951 40.4238 46.9951H57.2584C55.7369 46.9951 54.5166 48.2277 54.5166 49.7369C54.5166 51.2462 55.7369 52.4788 57.2584 52.4788V52.4805Z" fill="white"/>
</g>
</svg>
