<svg width="64" height="64" viewBox="0 0 64 64" fill="none" xmlns="http://www.w3.org/2000/svg">
<g id="1VZxPSdpUg5ks4amrlQkq2Cv0VPKLIFJrchbevkm">
<path id="Vector" d="M13.9498 34.248L14.0938 29.4H13.8778L10.6378 38.016L7.39784 29.4H7.18184L7.32584 34.248V42H4.58984V25.248H8.33384L10.6618 31.416H10.8298L13.1818 25.248H16.6858V42H13.9498V34.248Z" fill="white"/>
<path id="Vector_2" d="M22.8203 42L18.2363 25.248H21.6923L23.7803 33.72L25.0043 39H25.1723L26.4203 33.72L28.5323 25.248H31.8203L27.2363 42H22.8203Z" fill="white"/>
<path id="Vector_3" d="M37.5839 41.752L33 25H36.4559L38.5439 33.472L39.768 38.752H39.936L41.1839 33.472L43.2959 25H46.5839L42 41.752H37.5839Z" fill="white"/>
<path id="Vector_4" d="M57.1217 34.248L57.2657 29.4H57.0497L53.8097 38.016L50.5697 29.4H50.3537L50.4977 34.248V42H47.7617V25.248H51.5057L53.8337 31.416H54.0017L56.3537 25.248H59.8577V42H57.1217V34.248Z" fill="white"/>
</g>
</svg>
