<svg width="64" height="64" viewBox="0 0 64 64" fill="none" xmlns="http://www.w3.org/2000/svg">
<g id="KvdRboBXVkulrTOrIOa9Z6tft8ARuClGJH26w6L5">
<path id="Vector" d="M24.3488 47.2937C24.3488 47.2937 22.1962 48.6027 25.845 48.9772C30.2376 49.5372 32.5773 49.4444 37.4389 48.5099C38.416 49.1083 39.4493 49.6094 40.5242 50.0062C29.5866 54.6822 15.7439 49.7262 24.347 47.2937H24.3488ZM22.9487 41.2158C22.9487 41.2158 20.6107 42.9921 24.2578 43.3684C29.0266 43.8356 32.7664 43.9284 39.2204 42.6211C39.8481 43.2577 40.6166 43.7378 41.4639 44.0229C28.2793 47.9499 13.5056 44.3974 22.9487 41.2176V41.2158ZM48.7563 51.8735C48.7563 51.8735 50.3453 53.1825 46.98 54.2115C40.7149 56.084 20.7052 56.644 15.0947 54.2115C13.1311 53.3715 16.8709 52.1552 18.0697 51.968C19.286 51.6879 19.9422 51.6879 19.9422 51.6879C17.7897 50.1917 5.63582 54.7732 13.7716 56.0805C36.1194 59.7275 54.5401 54.4915 48.7423 51.8735H48.7563ZM25.3603 34.8563C25.3603 34.8563 15.1682 37.2888 21.7132 38.1288C24.5185 38.5033 30.0346 38.4088 35.1779 38.0361C39.3849 37.6615 43.5955 36.916 43.5955 36.916C43.5955 36.916 42.0992 37.5705 41.0702 38.2251C30.6926 40.9376 10.7739 39.7213 16.4789 36.916C21.3405 34.578 25.362 34.8598 25.362 34.8598L25.3603 34.8563ZM43.5955 45.0484C54.0676 39.6233 49.206 34.3908 45.839 35.0435C44.999 35.2308 44.6227 35.418 44.6227 35.418C44.6227 35.418 44.9027 34.858 45.5572 34.6708C52.1968 32.3327 57.4329 41.6831 43.4047 45.3284C43.4047 45.3284 43.4975 45.2356 43.592 45.0484H43.5955ZM26.3928 59.822C36.4904 60.4765 51.9203 59.4475 52.2931 54.677C52.2931 54.677 51.5458 56.5495 43.9717 57.9495C35.3686 59.5385 24.7093 59.3495 18.4442 58.324C18.4442 58.324 19.7532 59.444 26.3928 59.8203V59.822Z" fill="white"/>
<path id="Vector_2" d="M37.2533 4C37.2533 4 43.0512 9.89056 31.7373 18.7737C22.6669 25.9732 29.681 30.0875 31.7373 34.7636C26.4067 29.9948 22.5742 25.786 25.1922 21.8607C29.0248 16.0611 39.5914 13.2734 37.2533 4ZM34.2783 30.8365C36.9908 33.9218 33.531 36.7271 33.531 36.7271C33.531 36.7271 40.4506 33.1746 37.2708 28.7785C34.3728 24.5715 32.1258 22.5135 44.2832 15.5011C44.2832 15.5011 25.1152 20.2699 34.2783 30.8365Z" fill="white"/>
</g>
</svg>
