<svg width="19" height="16" viewBox="0 0 19 16" fill="none" xmlns="http://www.w3.org/2000/svg">
<g id="Group">
<path id="Vector" d="M9.54387 15.0168C12.9638 15.0168 15.7362 12.2444 15.7362 8.82446C15.7362 5.40454 12.9638 2.63215 9.54387 2.63215C6.12395 2.63215 3.35156 5.40454 3.35156 8.82446C3.35156 12.2444 6.12395 15.0168 9.54387 15.0168Z" stroke="#000080" stroke-width="1.76923"/>
<path id="Vector_2" d="M4.20473 0.983231C3.60461 1.14396 3.05738 1.45985 2.61808 1.89916C2.17877 2.33846 1.86287 2.88569 1.70215 3.48581M14.882 0.983231C15.4822 1.14396 16.0294 1.45985 16.4687 1.89916C16.908 2.33846 17.2239 2.88569 17.3846 3.48581M9.54338 5.286V8.60331C9.54338 8.72538 9.64246 8.82446 9.76453 8.82446H12.1972" stroke="#000080" stroke-width="1.76923" stroke-linecap="round"/>
</g>
</svg>
