<svg width="16" height="14" viewBox="0 0 16 14" fill="none" xmlns="http://www.w3.org/2000/svg">
<path id="Vector" d="M9.54775 0.687136C9.17969 0.476373 8.76192 0.365387 8.33661 0.365387C7.91131 0.365387 7.49353 0.476373 7.12548 0.687136L2.02315 3.60838C1.65632 3.81844 1.35181 4.12022 1.14017 4.48342C0.928536 4.84663 0.817216 5.25849 0.817383 5.67768V11.2445C0.817383 11.8784 1.07202 12.4863 1.52528 12.9346C1.97853 13.3828 2.59328 13.6346 3.23428 13.6346H13.4389C14.0799 13.6346 14.6947 13.3828 15.148 12.9346C15.6012 12.4863 15.8558 11.8784 15.8558 11.2445V5.67715C15.8558 5.25814 15.7444 4.8465 15.5328 4.48349C15.3212 4.12049 15.0168 3.81888 14.6501 3.60891L9.54775 0.687136ZM7.66364 1.60653C7.86814 1.4894 8.10029 1.42771 8.33661 1.42771C8.57294 1.42771 8.80508 1.4894 9.00959 1.60653L14.1119 4.52777C14.2929 4.63135 14.4433 4.77316 14.5556 4.9394L8.33661 8.25103L2.11767 4.93994C2.23046 4.77369 2.38085 4.63188 2.56131 4.52831L7.66364 1.60653ZM1.89156 6.02558L8.08203 9.32233C8.16028 9.36399 8.24775 9.38579 8.33661 9.38579C8.42548 9.38579 8.51295 9.36399 8.59119 9.32233L14.7817 6.02558V11.2445C14.7817 11.5967 14.6402 11.9344 14.3884 12.1834C14.1366 12.4325 13.7951 12.5723 13.4389 12.5723H3.23428C2.87817 12.5723 2.53664 12.4325 2.28483 12.1834C2.03302 11.9344 1.89156 11.5967 1.89156 11.2445V6.02558Z" fill="#000080"/>
</svg>
