<svg width="56" height="56" viewBox="0 0 56 56" fill="none" xmlns="http://www.w3.org/2000/svg">
<path d="M28 15.75C23.3625 15.75 19.25 17.5 19.25 19.25V35.91C19.25 38.5 23.2225 39.83 28 39.83C32.7775 39.83 37.625 38.4825 38.5 35.91V19.25C37.625 16.8525 32.6375 15.75 28 15.75ZM21 19.25C21.14 18.76 23.765 17.5 28.875 17.5C33.985 17.5 36.575 18.76 36.75 19.25C36.575 19.74 33.95 21 28.875 21C23.8 21 21.14 19.7225 21 19.25ZM36.75 35.8925C36.75 36.54 34.0725 38.0625 28.875 38.0625C23.6775 38.0625 21 36.5575 21 35.91V32.9875C23.4734 34.0942 26.167 34.6209 28.875 34.5275C31.583 34.6209 34.2766 34.0942 36.75 32.9875V35.8925ZM36.75 30.7475C36.3475 31.535 33.46 32.76 28.875 32.76C24.29 32.76 21.4025 31.5 21 30.765V26.95C23.4734 28.0567 26.167 28.5835 28.875 28.49C31.583 28.5835 34.2766 28.0567 36.75 26.95V30.7475ZM36.75 24.71C36.3475 25.4975 33.46 26.7225 28.875 26.7225C24.29 26.7225 21.4025 25.4975 21 24.71V21.3675C23.4983 22.378 26.1819 22.8491 28.875 22.75C31.5681 22.8491 34.2517 22.378 36.75 21.3675V24.71Z" fill="black"/>
<path d="M14.4549 19.9326L13.8599 18.1826C8.08492 20.2651 4.79492 23.4326 4.79492 26.9326C4.79492 30.4326 8.08492 33.5301 13.8599 35.6826L14.4549 34.0376C9.50244 32.2876 6.54492 29.6276 6.54492 27.0376C6.54492 24.4476 9.50244 21.7176 14.4549 19.9326Z" fill="black"/>
<path d="M41.8252 34.1601L42.3852 35.8226C48.5102 33.7576 52.0277 30.5726 52.0277 26.9501C52.0277 23.3276 48.5277 20.1426 42.3852 18.0776L41.8252 19.7401C47.0752 21.4901 50.2777 24.2201 50.2777 26.9501C50.2777 29.6801 47.1102 32.3751 41.8252 34.1601Z" fill="black"/>
<path d="M5.25 6.79L12.5125 13.79L13.7375 12.53L6.1775 5.25H12.25V3.5H4.375C4.14293 3.5 3.92038 3.59219 3.75628 3.75628C3.59219 3.92038 3.5 4.14293 3.5 4.375V12.25H5.25V6.79Z" fill="black"/>
<path d="M51.6252 3.5H43.7502V5.25H49.5078L42.2627 12.5125L43.4878 13.7375L50.7502 6.4925V12.25H52.5002V4.375C52.5002 4.14293 52.4081 3.92038 52.244 3.75628C52.0798 3.59219 51.8573 3.5 51.6252 3.5Z" fill="black"/>
<path d="M50.7502 49.5078L43.4878 42.2627L42.2627 43.4878L49.5078 50.7502H43.7502V52.5002H51.6252C51.8573 52.5002 52.0798 52.4081 52.244 52.244C52.4081 52.0798 52.5002 51.8573 52.5002 51.6252V43.7502H50.7502V49.5078Z" fill="black"/>
<path d="M12.5125 42.2627L5.25 49.5078V43.7502H3.5V51.6252C3.5 51.8573 3.59219 52.0798 3.75628 52.244C3.92038 52.4081 4.14293 52.5002 4.375 52.5002H12.25V50.7502H6.4925L13.7375 43.4878L12.5125 42.2627Z" fill="black"/>
</svg>
