<svg width="56" height="56" viewBox="0 0 56 56" fill="none" xmlns="http://www.w3.org/2000/svg">
<g id="mongodb" clip-path="url(#clip0_421_63)">
<path id="Vector" d="M32.813 6.24159C30.4628 3.45302 28.4389 0.620892 28.0254 0.0326786C27.9819 -0.0108929 27.9166 -0.0108929 27.873 0.0326786C27.4596 0.620892 25.4357 3.45302 23.0854 6.24159C2.91194 31.9703 26.2627 49.3336 26.2627 49.3336L26.4585 49.4644C26.6326 52.1439 27.0679 56 27.0679 56H27.9383H28.8088C28.8088 56 29.2441 52.1657 29.4182 49.4644L29.614 49.3119C29.6358 49.3336 52.9866 31.9703 32.813 6.24159ZM27.9383 48.9414C27.9383 48.9414 26.8937 48.0483 26.6108 47.5908V47.5471L27.873 19.5309C27.873 19.4436 28.0037 19.4436 28.0037 19.5309L29.2659 47.5471V47.5908C28.9829 48.0483 27.9383 48.9414 27.9383 48.9414Z" fill="white"/>
</g>
<defs>
<clipPath id="clip0_421_63">
<rect width="56" height="56" fill="white"/>
</clipPath>
</defs>
</svg>
