<svg width="56" height="56" viewBox="0 0 56 56" fill="none" xmlns="http://www.w3.org/2000/svg">
<g id="DI8Ln5cplReLAzWfF8YT01rEt2Tj3tTeCLDMe5x3" clip-path="url(#clip0_421_72)">
<g id="Clip path group">
<mask id="mask0_421_72" style="mask-type:luminance" maskUnits="userSpaceOnUse" x="0" y="0" width="56" height="56">
<g id="clip0_1886_25465">
<path id="Vector" d="M56 0H0V56H56V0Z" fill="white"/>
</g>
</mask>
<g mask="url(#mask0_421_72)">
<g id="Group">
<path id="Vector_2" d="M51.4733 42.961C48.4405 42.8854 46.0899 43.1889 44.1184 44.0228C43.5497 44.2501 42.6398 44.2504 42.5639 44.9705C42.8673 45.2741 42.9052 45.7668 43.1706 46.1838C43.6259 46.9417 44.4216 47.9656 45.1421 48.4965C45.9381 49.103 46.7344 49.7094 47.5683 50.2403C49.0468 51.1503 50.715 51.6808 52.1556 52.5908C52.9899 53.1212 53.8236 53.8041 54.6577 54.3728C55.0749 54.6758 55.3401 55.1687 55.871 55.3583V55.2447C55.6055 54.9034 55.5296 54.4106 55.2644 54.0314C54.8856 53.6523 54.5061 53.3111 54.127 52.932C53.0276 51.4535 51.6628 50.1644 50.1842 49.103C48.9713 48.2689 46.3173 47.1315 45.8244 45.7288L45.7486 45.6532C46.5827 45.5773 47.5683 45.2741 48.3645 45.0464C49.6536 44.7051 50.8289 44.781 52.1556 44.4399C52.7622 44.2882 53.3689 44.0986 53.9753 43.9091V43.568C53.2932 42.8854 52.8001 41.9757 52.0798 41.3311C50.1464 39.6627 48.0232 38.0327 45.8244 36.668C44.649 35.9098 43.1325 35.4168 41.8815 34.7725C41.4268 34.5446 40.6683 34.4312 40.4032 34.0521C39.7206 33.218 39.3414 32.1187 38.8486 31.1328C37.7495 29.0475 36.6877 26.7353 35.7398 24.5365C35.0577 23.0578 34.6406 21.5792 33.8064 20.2145C29.9016 13.7695 25.6555 9.86466 19.1348 6.03549C17.732 5.23941 16.064 4.89809 14.282 4.48124C13.3347 4.44313 12.3866 4.3675 11.4388 4.32948C10.8323 4.0641 10.2255 3.34384 9.69467 3.00252C7.53418 1.63764 1.96092 -1.31921 0.36856 2.58567C-0.6551 5.04994 1.88509 7.4761 2.7569 8.72734C3.40173 9.59927 4.23562 10.5849 4.69059 11.5707C4.95597 12.2148 5.03161 12.8976 5.2971 13.58C5.90381 15.2477 6.47222 17.1057 7.26849 18.6602C7.68564 19.4562 8.1404 20.2903 8.67128 21.0105C8.97445 21.4274 9.50506 21.6172 9.61915 22.2995C9.08847 23.0578 9.05041 24.1952 8.74691 25.1429C7.38224 29.4269 7.91302 34.7344 9.84639 37.881C10.4529 38.8286 11.8937 40.9142 13.8271 40.118C15.5332 39.4355 15.1541 37.2746 15.6468 35.379C15.7608 34.9238 15.6848 34.6207 15.9123 34.3176V34.3934C16.4431 35.4548 16.9737 36.4786 17.4665 37.54C18.6419 39.3975 20.689 41.3311 22.395 42.6202C23.3053 43.3023 24.0254 44.4777 25.1627 44.8949V44.781H25.0869C24.8592 44.4397 24.5182 44.2882 24.2149 44.0227C23.5325 43.3405 22.7741 42.5063 22.2435 41.7481C20.6514 39.6249 19.2484 37.2746 17.9974 34.8482C17.3909 33.673 16.86 32.3839 16.3673 31.2088C16.1397 30.7535 16.1397 30.0714 15.7605 29.844C15.1918 30.6779 14.358 31.3983 13.9409 32.4219C13.2209 34.0521 13.1448 36.0614 12.8794 38.1464C12.7279 38.1846 12.8035 38.1464 12.7276 38.2224C11.5146 37.9188 11.0976 36.6681 10.6424 35.6064C9.50506 32.9148 9.31562 28.5927 10.3014 25.4843C10.5669 24.6879 11.7042 22.1859 11.2492 21.4276C11.0218 20.7073 10.2633 20.2903 9.84639 19.7216C9.35359 19.0012 8.82273 18.0916 8.48172 17.2952C7.5717 15.1723 7.11674 12.8217 6.13119 10.6985C5.67623 9.71267 4.88015 8.68933 4.23553 7.7796C3.51547 6.75595 2.71918 6.03549 2.15049 4.82227C1.96112 4.40531 1.69552 3.72297 1.99874 3.26801C2.07456 2.96481 2.22611 2.85107 2.52962 2.77524C3.02229 2.358 4.42519 2.88888 4.91796 3.11626C6.32066 3.68466 7.49587 4.21575 8.67128 5.01193C9.20187 5.39096 9.77062 6.11132 10.4529 6.30089H11.2492C12.4625 6.56608 13.8271 6.37681 14.9645 6.71783C16.9739 7.36216 18.7934 8.31019 20.4238 9.33388C25.3903 12.4805 29.4845 16.9542 32.2522 22.2995C32.7072 23.1713 32.8965 23.9678 33.3135 24.8775C34.11 26.7353 35.0955 28.6309 35.8915 30.4505C36.6877 32.2321 37.4458 34.0521 38.5831 35.5307C39.1522 36.3265 41.4265 36.7437 42.4502 37.1609C43.2085 37.502 44.3838 37.8054 45.0661 38.2224C46.355 39.0182 47.644 39.9284 48.8573 40.8003C49.4641 41.255 51.3594 42.2031 51.4733 42.961Z" fill="white"/>
<path id="Vector_3" d="M12.8034 10.0161C12.1588 10.0161 11.7039 10.0922 11.249 10.206V10.2819H11.325C11.6283 10.8883 12.1588 11.3055 12.5379 11.8361C12.8413 12.4426 13.1066 13.0493 13.4101 13.656L13.4857 13.5802C14.0168 13.2009 14.2819 12.5943 14.2819 11.6847C14.0543 11.4193 14.0165 11.1537 13.8269 10.8883C13.5995 10.509 13.1066 10.3197 12.8034 10.0161Z" fill="white"/>
</g>
</g>
</g>
</g>
<defs>
<clipPath id="clip0_421_72">
<rect width="56" height="56" fill="white"/>
</clipPath>
</defs>
</svg>
