<svg width="64" height="64" viewBox="0 0 64 64" fill="none" xmlns="http://www.w3.org/2000/svg">
<g id="2ojlUKXf3joUldVwFHGosaLom1z4Kr599VuRSeQr">
<path id="Vector" d="M47.3895 43.3926C51.9239 41.4365 56.3477 39.528 57.8041 38.766C58.8545 38.2165 59.5218 37.7511 59.8192 37.332C59.8843 37.3536 59.9444 37.3746 59.9993 37.3947L59.998 42.9965C59.9984 43.5583 59.3265 44.1744 57.8053 44.9702C56.348 45.7327 51.9204 47.6427 47.3836 49.5998C42.6163 51.6564 37.7285 53.765 36.0397 54.6488C32.7438 56.3739 30.9129 56.3572 28.3092 55.1077C27.0496 54.5032 22.5436 52.6277 17.891 50.6911C12.9265 48.6247 7.79517 46.4889 6.26317 45.7537C4.78005 45.0423 4 44.4415 4 43.874V38.1919C4 38.1919 4.06484 38.1777 4.18796 38.1507C4.49798 38.5782 5.19105 39.0349 6.26377 39.5495C7.79672 40.2848 12.9339 42.4232 17.9014 44.4909C22.5502 46.426 27.0504 48.2992 28.3091 48.9029C30.9127 50.1523 32.7436 50.1692 36.0392 48.4446C37.7288 47.5601 42.6203 45.45 47.3895 43.3926Z" fill="black"/>
<path id="Vector_2" d="M47.3895 34.7557C51.9239 32.7996 56.3477 30.8912 57.8041 30.1292C59.2839 29.3549 60.0035 28.7476 59.9992 28.2017L59.998 33.8042C59.9985 34.3657 59.3265 34.9818 57.8053 35.7776C56.3486 36.54 51.9236 38.4489 47.3884 40.4054C42.6196 42.4626 37.729 44.5724 36.0397 45.4568C32.7438 47.1813 30.9129 47.1646 28.3092 45.9151C27.051 45.3117 22.5541 43.4398 17.9073 41.5056C12.9377 39.437 7.79685 37.2971 6.26316 36.5611C4.78005 35.8497 4 35.2497 4 34.6821V29.0083C4.00021 29.582 4.75793 30.1903 6.26377 30.9127C7.79671 31.648 12.9339 33.7863 17.9014 35.8541C22.5502 37.7891 27.0504 39.6624 28.3091 40.266C30.9127 41.5155 32.7436 41.5324 36.0392 39.8077C37.7288 38.9233 42.6203 36.8131 47.3895 34.7557Z" fill="black"/>
<path id="Vector_3" fill-rule="evenodd" clip-rule="evenodd" d="M4.00058 19.499C3.97677 18.932 4.68996 18.3998 6.14903 17.8261L6.94066 17.5148C11.2736 15.8107 25.6881 10.1415 28.9108 8.98069C32.3731 7.73363 33.5743 7.68883 36.5208 8.77252C37.9992 9.31621 42.6092 11.1347 47.2041 12.9472C51.7675 14.7473 56.3169 16.5419 57.7677 17.0755C59.2388 17.6163 59.9955 18.1092 59.9991 18.666L59.9986 24.2685C59.999 24.8296 59.327 25.4458 57.8059 26.2418C56.3497 27.0036 51.9277 28.9113 47.3945 30.8669C42.624 32.925 37.7303 35.0362 36.0403 35.921C32.7444 37.6457 30.9135 37.6287 28.3097 36.3793C27.0505 35.7753 22.5473 33.9008 17.8965 31.9649C12.9308 29.898 7.79612 27.7607 6.26373 27.0257C4.78063 26.3136 4.00058 25.7135 4.00058 25.1465V19.499ZM38.1777 15.0655L33.3631 15.5673L32.2853 18.1708L30.5445 15.2656L24.9851 14.7641L29.1334 13.2622L27.8887 10.957L31.7726 12.4818L35.434 11.2785L34.4444 13.6621L38.1777 15.0655ZM31.9979 27.6961L23.0124 23.9549L35.8879 21.9708L31.9979 27.6961ZM19.5402 16.5127C23.341 16.5127 26.422 17.7116 26.422 19.1904C26.422 20.6695 23.341 21.8683 19.5402 21.8683C15.7395 21.8683 12.6585 20.6693 12.6585 19.1904C12.6585 17.7116 15.7395 16.5127 19.5402 16.5127ZM43.8679 15.7767L51.4882 18.7996L43.8745 21.8196L43.0483 22.144L35.4379 19.1241L43.8679 15.7767Z" fill="black"/>
</g>
</svg>
