<svg width="30" height="31" viewBox="0 0 30 31" fill="none" xmlns="http://www.w3.org/2000/svg">
<g id="icon-park-outline:web-page">
<g id="Group">
<path id="Vector" d="M25.2177 5.66882H4.42723C3.41409 5.66882 2.59277 6.5158 2.59277 7.5606V23.956C2.59277 25.0008 3.41409 25.8478 4.42723 25.8478H25.2177C26.2308 25.8478 27.0521 25.0008 27.0521 23.956V7.5606C27.0521 6.5158 26.2308 5.66882 25.2177 5.66882Z" stroke="#000080" stroke-width="1.83445" stroke-linejoin="round"/>
<path id="Vector_2" d="M2.59277 7.5606C2.59277 7.05887 2.78605 6.57769 3.13007 6.22291C3.4741 5.86813 3.9407 5.66882 4.42723 5.66882H25.2177C25.7042 5.66882 26.1708 5.86813 26.5148 6.22291C26.8589 6.57769 27.0521 7.05887 27.0521 7.5606V13.2359H2.59277V7.5606Z" stroke="#000080" stroke-width="1.83445"/>
<path id="Vector_3" d="M5.03844 9.45232C5.03844 8.75578 5.58598 8.19113 6.26141 8.19113C6.93683 8.19113 7.48438 8.75578 7.48438 9.45232C7.48438 10.1488 6.93683 10.7135 6.26141 10.7135C5.58598 10.7135 5.03844 10.1488 5.03844 9.45232Z" fill="#000080"/>
<path id="Vector_4" d="M8.70738 9.45232C8.70738 8.75578 9.25493 8.19113 9.93035 8.19113C10.6058 8.19113 11.1533 8.75578 11.1533 9.45232C11.1533 10.1488 10.6058 10.7135 9.93035 10.7135C9.25493 10.7135 8.70738 10.1488 8.70738 9.45232Z" fill="#000080"/>
</g>
</g>
</svg>
