<svg width="29" height="29" viewBox="0 0 29 29" fill="none" xmlns="http://www.w3.org/2000/svg">
<g id="iconoir:design-nib">
<g id="Group">
<path id="Vector" d="M4.30165 24.2449L11.5982 16.9484M20.7865 13.7037L18.6023 20.2561C18.5675 20.3611 18.5078 20.4562 18.4284 20.5333C18.3489 20.6103 18.2521 20.6671 18.146 20.6987L4.75682 24.6783C4.63619 24.7141 4.50805 24.7162 4.38634 24.6842C4.26463 24.6523 4.15401 24.5876 4.06652 24.4971C3.97903 24.4067 3.91803 24.294 3.89015 24.1713C3.86227 24.0486 3.86857 23.9206 3.90838 23.8012L8.25603 10.7605C8.28719 10.6669 8.33813 10.5811 8.40539 10.5089C8.47266 10.4367 8.55467 10.3798 8.64586 10.3421L14.8222 7.79904C14.9478 7.74718 15.0859 7.73366 15.2191 7.76019C15.3524 7.78671 15.4748 7.8521 15.5709 7.94809L20.6202 12.9986C20.7108 13.089 20.7743 13.2029 20.8037 13.3275C20.8331 13.452 20.8271 13.5823 20.7865 13.7037Z" stroke="#000080" stroke-width="1.37584" stroke-linecap="round" stroke-linejoin="round"/>
<path id="Vector_2" d="M20.9214 13.3001L24.1638 10.0565C24.5937 9.6265 24.8352 9.04336 24.8352 8.43532C24.8352 7.82728 24.5937 7.24414 24.1638 6.81412L21.7331 4.38118C21.5202 4.16815 21.2674 3.99916 20.9891 3.88387C20.7108 3.76857 20.4126 3.70923 20.1114 3.70923C19.8102 3.70923 19.5119 3.76857 19.2336 3.88387C18.9554 3.99916 18.7025 4.16815 18.4896 4.38118L15.2472 7.62472M14.0296 14.5154C13.8698 14.3557 13.6802 14.2291 13.4715 14.1427C13.2628 14.0563 13.0392 14.0119 12.8133 14.0119C12.5874 14.012 12.3638 14.0565 12.1551 14.143C11.9465 14.2295 11.7569 14.3562 11.5972 14.516C11.4375 14.6757 11.3109 14.8653 11.2245 15.074C11.1381 15.2827 11.0937 15.5064 11.0938 15.7323C11.0938 15.9581 11.1383 16.1818 11.2248 16.3904C11.3113 16.5991 11.438 16.7886 11.5978 16.9483C11.9204 17.2708 12.3579 17.4519 12.8141 17.4518C13.2703 17.4517 13.7077 17.2704 14.0302 16.9478C14.3526 16.6251 14.5337 16.1876 14.5336 15.7314C14.5335 15.2753 14.3522 14.8379 14.0296 14.5154Z" stroke="#000080" stroke-width="1.37584" stroke-linecap="round" stroke-linejoin="round"/>
</g>
</g>
</svg>
