<svg width="27" height="26" viewBox="0 0 27 26" fill="none" xmlns="http://www.w3.org/2000/svg">
<path id="Vector" d="M0.944336 6.00445C0.944336 4.42324 1.57247 2.90679 2.69056 1.7887C3.80864 0.670614 5.32509 0.0424805 6.9063 0.0424805H8.74076C9.10565 0.0424805 9.4556 0.187434 9.71362 0.445454C9.97164 0.703474 10.1166 1.05342 10.1166 1.41832C10.1166 1.78321 9.97164 2.13316 9.71362 2.39118C9.4556 2.6492 9.10565 2.79416 8.74076 2.79416H6.9063C6.05488 2.79416 5.23833 3.13238 4.63629 3.73443C4.03424 4.33648 3.69601 5.15303 3.69601 6.00445V7.8389C3.69601 8.2038 3.55106 8.55375 3.29304 8.81177C3.03502 9.06979 2.68507 9.21474 2.32017 9.21474C1.95528 9.21474 1.60533 9.06979 1.34731 8.81177C1.08929 8.55375 0.944336 8.2038 0.944336 7.8389V6.00445ZM26.6267 19.7628C26.6267 21.3441 25.9985 22.8605 24.8804 23.9786C23.7624 25.0967 22.2459 25.7248 20.6647 25.7248H18.8302C18.4653 25.7248 18.1154 25.5799 17.8574 25.3218C17.5994 25.0638 17.4544 24.7139 17.4544 24.349C17.4544 23.9841 17.5994 23.6341 17.8574 23.3761C18.1154 23.1181 18.4653 22.9731 18.8302 22.9731H20.6647C21.5161 22.9731 22.3327 22.6349 22.9347 22.0329C23.5368 21.4308 23.875 20.6143 23.875 19.7628V17.9284C23.875 17.5635 24.0199 17.2135 24.278 16.9555C24.536 16.6975 24.8859 16.5525 25.2508 16.5525C25.6157 16.5525 25.9657 16.6975 26.2237 16.9555C26.4817 17.2135 26.6267 17.5635 26.6267 17.9284V19.7628ZM26.6267 6.00445C26.6267 4.42324 25.9985 2.90679 24.8804 1.7887C23.7624 0.670614 22.2459 0.0424805 20.6647 0.0424805H18.8302C18.4653 0.0424805 18.1154 0.187434 17.8574 0.445454C17.5994 0.703474 17.4544 1.05342 17.4544 1.41832C17.4544 1.78321 17.5994 2.13316 17.8574 2.39118C18.1154 2.6492 18.4653 2.79416 18.8302 2.79416H20.6647C22.4368 2.79416 23.875 4.23237 23.875 6.00445V7.8389C23.875 8.2038 24.0199 8.55375 24.278 8.81177C24.536 9.06979 24.8859 9.21474 25.2508 9.21474C25.6157 9.21474 25.9657 9.06979 26.2237 8.81177C26.4817 8.55375 26.6267 8.2038 26.6267 7.8389V6.00445ZM6.9063 25.7248C5.32509 25.7248 3.80864 25.0967 2.69056 23.9786C1.57247 22.8605 0.944336 21.3441 0.944336 19.7628V17.9284C0.944336 17.5635 1.08929 17.2135 1.34731 16.9555C1.60533 16.6975 1.95528 16.5525 2.32017 16.5525C2.68507 16.5525 3.03502 16.6975 3.29304 16.9555C3.55106 17.2135 3.69601 17.5635 3.69601 17.9284V19.7628C3.69601 21.5349 5.13422 22.9731 6.9063 22.9731H8.74076C9.10565 22.9731 9.4556 23.1181 9.71362 23.3761C9.97164 23.6341 10.1166 23.9841 10.1166 24.349C10.1166 24.7139 9.97164 25.0638 9.71362 25.3218C9.4556 25.5799 9.10565 25.7248 8.74076 25.7248H6.9063ZM13.7855 16.5525C14.7586 16.5525 15.6918 16.166 16.3798 15.478C17.0679 14.7899 17.4544 13.8567 17.4544 12.8836C17.4544 11.9106 17.0679 10.9774 16.3798 10.2893C15.6918 9.60128 14.7586 9.21474 13.7855 9.21474C12.8124 9.21474 11.8792 9.60128 11.1912 10.2893C10.5031 10.9774 10.1166 11.9106 10.1166 12.8836C10.1166 13.8567 10.5031 14.7899 11.1912 15.478C11.8792 16.166 12.8124 16.5525 13.7855 16.5525ZM8.28214 9.21474C8.76867 9.21474 9.23527 9.02147 9.5793 8.67744C9.92332 8.33342 10.1166 7.86682 10.1166 7.38029C10.1166 6.89376 9.92332 6.42716 9.5793 6.08314C9.23527 5.73911 8.76867 5.54584 8.28214 5.54584C7.79562 5.54584 7.32902 5.73911 6.98499 6.08314C6.64096 6.42716 6.44769 6.89376 6.44769 7.38029C6.44769 7.86682 6.64096 8.33342 6.98499 8.67744C7.32902 9.02147 7.79562 9.21474 8.28214 9.21474Z" fill="#000080"/>
</svg>
