<svg width="42" height="42" viewBox="0 0 42 42" fill="none" xmlns="http://www.w3.org/2000/svg">
<path d="M33.3379 8.59251C31.7335 6.97188 29.8225 5.68693 27.7163 4.8126C25.6101 3.93827 23.3508 3.49207 21.0704 3.50001C11.5154 3.50001 3.72789 11.2875 3.72789 20.8425C3.72789 23.905 4.53289 26.88 6.03789 29.505L3.58789 38.5L12.7754 36.085C15.3129 37.4675 18.1654 38.2025 21.0704 38.2025C30.6254 38.2025 38.4129 30.415 38.4129 20.86C38.4129 16.2225 36.6104 11.865 33.3379 8.59251ZM21.0704 35.2625C18.4804 35.2625 15.9429 34.5625 13.7204 33.25L13.1954 32.935L7.73539 34.37L9.18789 29.05L8.83789 28.5075C7.39895 26.2097 6.63489 23.5537 6.63289 20.8425C6.63289 12.8975 13.1079 6.42251 21.0529 6.42251C24.9029 6.42251 28.5254 7.92751 31.2379 10.6575C32.581 11.9944 33.6454 13.5847 34.3693 15.336C35.0933 17.0873 35.4625 18.965 35.4554 20.86C35.4904 28.805 29.0154 35.2625 21.0704 35.2625ZM28.9804 24.4825C28.5429 24.2725 26.4079 23.2225 26.0229 23.065C25.6204 22.925 25.3404 22.855 25.0429 23.275C24.7454 23.7125 23.9229 24.6925 23.6779 24.9725C23.4329 25.27 23.1704 25.305 22.7329 25.0775C22.2954 24.8675 20.8954 24.395 19.2504 22.925C17.9554 21.77 17.0979 20.3525 16.8354 19.915C16.5904 19.4775 16.8004 19.25 17.0279 19.0225C17.2204 18.83 17.4654 18.515 17.6754 18.27C17.8854 18.025 17.9729 17.8325 18.1129 17.5525C18.2529 17.255 18.1829 17.01 18.0779 16.8C17.9729 16.59 17.0979 14.455 16.7479 13.58C16.3979 12.74 16.0304 12.845 15.7679 12.8275H14.9279C14.6304 12.8275 14.1754 12.9325 13.7729 13.37C13.3879 13.8075 12.2679 14.8575 12.2679 16.9925C12.2679 19.1275 13.8254 21.1925 14.0354 21.4725C14.2454 21.77 17.0979 26.145 21.4379 28.0175C22.4704 28.4725 23.2754 28.735 23.9054 28.9275C24.9379 29.26 25.8829 29.2075 26.6354 29.1025C27.4754 28.98 29.2079 28.0525 29.5579 27.0375C29.9254 26.0225 29.9254 25.165 29.8029 24.9725C29.6804 24.78 29.4179 24.6925 28.9804 24.4825Z" fill="#0E1670"/>
</svg>
