<svg width="41" height="41" viewBox="0 0 41 41" fill="none" xmlns="http://www.w3.org/2000/svg">
<path d="M32.4583 5.125C33.3645 5.125 34.2335 5.48497 34.8743 6.12572C35.515 6.76647 35.875 7.63551 35.875 8.54167V32.4583C35.875 33.3645 35.515 34.2335 34.8743 34.8743C34.2335 35.515 33.3645 35.875 32.4583 35.875H8.54167C7.63551 35.875 6.76647 35.515 6.12572 34.8743C5.48497 34.2335 5.125 33.3645 5.125 32.4583V8.54167C5.125 7.63551 5.48497 6.76647 6.12572 6.12572C6.76647 5.48497 7.63551 5.125 8.54167 5.125H32.4583ZM31.6042 31.6042V22.55C31.6042 21.073 31.0174 19.6564 29.973 18.612C28.9286 17.5676 27.512 16.9808 26.035 16.9808C24.5829 16.9808 22.8917 17.8692 22.0717 19.2017V17.3054H17.3054V31.6042H22.0717V23.1821C22.0717 21.8667 23.1308 20.7904 24.4463 20.7904C25.0806 20.7904 25.6889 21.0424 26.1374 21.4909C26.5859 21.9394 26.8379 22.5478 26.8379 23.1821V31.6042H31.6042ZM11.7533 14.6233C12.5145 14.6233 13.2445 14.321 13.7827 13.7827C14.321 13.2445 14.6233 12.5145 14.6233 11.7533C14.6233 10.1646 13.3421 8.86625 11.7533 8.86625C10.9876 8.86625 10.2533 9.17042 9.71186 9.71186C9.17042 10.2533 8.86625 10.9876 8.86625 11.7533C8.86625 13.3421 10.1646 14.6233 11.7533 14.6233ZM14.1279 31.6042V17.3054H9.39583V31.6042H14.1279Z" fill="#0E1670"/>
</svg>
