<svg width="41" height="41" viewBox="0 0 41 41" fill="none" xmlns="http://www.w3.org/2000/svg">
<path d="M13.3253 3.41666H27.6753C33.142 3.41666 37.5837 7.85832 37.5837 13.325V27.675C37.5837 30.3028 36.5397 32.8231 34.6816 34.6812C32.8234 36.5394 30.3032 37.5833 27.6753 37.5833H13.3253C7.85866 37.5833 3.41699 33.1417 3.41699 27.675V13.325C3.41699 10.6971 4.4609 8.17691 6.31908 6.31874C8.17725 4.46057 10.6975 3.41666 13.3253 3.41666ZM12.9837 6.83332C11.3526 6.83332 9.7883 7.48127 8.63495 8.63462C7.4816 9.78797 6.83366 11.3522 6.83366 12.9833V28.0167C6.83366 31.4162 9.58407 34.1667 12.9837 34.1667H28.017C29.6481 34.1667 31.2124 33.5187 32.3657 32.3654C33.519 31.212 34.167 29.6477 34.167 28.0167V12.9833C34.167 9.58374 31.4166 6.83332 28.017 6.83332H12.9837ZM29.4691 9.39582C30.0354 9.39582 30.5786 9.6208 30.979 10.0213C31.3795 10.4217 31.6045 10.9649 31.6045 11.5312C31.6045 12.0976 31.3795 12.6407 30.979 13.0412C30.5786 13.4417 30.0354 13.6667 29.4691 13.6667C28.9027 13.6667 28.3596 13.4417 27.9591 13.0412C27.5586 12.6407 27.3337 12.0976 27.3337 11.5312C27.3337 10.9649 27.5586 10.4217 27.9591 10.0213C28.3596 9.6208 28.9027 9.39582 29.4691 9.39582ZM20.5003 11.9583C22.7657 11.9583 24.9383 12.8582 26.5402 14.4601C28.1421 16.062 29.042 18.2346 29.042 20.5C29.042 22.7654 28.1421 24.938 26.5402 26.5399C24.9383 28.1417 22.7657 29.0417 20.5003 29.0417C18.2349 29.0417 16.0623 28.1417 14.4605 26.5399C12.8586 24.938 11.9587 22.7654 11.9587 20.5C11.9587 18.2346 12.8586 16.062 14.4605 14.4601C16.0623 12.8582 18.2349 11.9583 20.5003 11.9583ZM20.5003 15.375C19.1411 15.375 17.8375 15.9149 16.8764 16.8761C15.9153 17.8372 15.3753 19.1408 15.3753 20.5C15.3753 21.8592 15.9153 23.1628 16.8764 24.1239C17.8375 25.085 19.1411 25.625 20.5003 25.625C21.8596 25.625 23.1631 25.085 24.1242 24.1239C25.0854 23.1628 25.6253 21.8592 25.6253 20.5C25.6253 19.1408 25.0854 17.8372 24.1242 16.8761C23.1631 15.9149 21.8596 15.375 20.5003 15.375Z" fill="#0E1670"/>
</svg>
